<svg width="52" height="47" viewBox="0 0 52 47" fill="none" xmlns="http://www.w3.org/2000/svg">
<path d="M6.96558 23.5V1.73315M45.0767 45.2669V37.1043M6.96558 45.2669V34.3834M45.0767 26.2209V1.73315M26.0211 9.89572V1.73315M26.0211 45.2669V20.7791" stroke="#1E40AF" stroke-width="3" stroke-linecap="round"/>
<path d="M6.95488 34.3876C9.96177 34.3876 12.3993 31.9512 12.3993 28.9459C12.3993 25.9405 9.96177 23.5042 6.95488 23.5042C3.948 23.5042 1.51044 25.9405 1.51044 28.9459C1.51044 31.9512 3.948 34.3876 6.95488 34.3876Z" stroke="#1E40AF" stroke-width="3" stroke-linecap="round"/>
<path d="M26 20.7986C29.0069 20.7986 31.4444 18.3623 31.4444 15.3569C31.4444 12.3516 29.0069 9.91522 26 9.91522C22.9931 9.91522 20.5555 12.3516 20.5555 15.3569C20.5555 18.3623 22.9931 20.7986 26 20.7986Z" stroke="#1E40AF" stroke-width="3" stroke-linecap="round"/>
<path d="M45.0452 37.1149C48.052 37.1149 50.4896 34.6786 50.4896 31.6732C50.4896 28.6678 48.052 26.2315 45.0452 26.2315C42.0383 26.2315 39.6007 28.6678 39.6007 31.6732C39.6007 34.6786 42.0383 37.1149 45.0452 37.1149Z" stroke="#1E40AF" stroke-width="3" stroke-linecap="round"/>
</svg>
