<svg width="130" height="132" viewBox="0 0 130 132" fill="none" xmlns="http://www.w3.org/2000/svg">
<path d="M121.85 75.6712C121.47 75.187 121.013 74.6967 120.55 74.2063L115.769 78.454L120.081 73.7099C118.134 71.6504 116.042 69.9342 113.873 68.6041C113.86 68.5919 113.841 68.5796 113.822 68.5674C113.702 68.4815 113.581 68.3957 113.454 68.316C113.372 68.2609 113.283 68.2118 113.201 68.1567C113.14 68.1207 113.073 68.0954 113.012 68.0594C115.684 57.0021 116.99 45.8386 116.46 36.7806C115.851 26.8695 109.288 18.2087 99.744 14.715L60.6549 0.403004C59.1837 -0.136378 57.5476 -0.130248 56.07 0.396874L16.8795 14.6292C6.91067 18.1903 0.30282 27.1208 0.0428186 37.32C-0.597673 55.4506 5.85164 91.6688 25.8527 111.669C35.0479 120.863 45.8919 125.527 58.093 125.527C62.6133 125.527 66.9707 124.883 71.1057 123.617C71.2849 123.757 71.3867 123.887 71.6004 124.026C77.8531 129.046 85.8053 131.804 94.0683 131.804C102.756 131.804 111.064 128.794 117.38 123.394C125.262 116.885 129.784 107.366 129.784 97.2833C129.784 91.8772 128.458 86.5079 125.941 81.7332C124.698 79.3979 123.252 77.271 121.85 75.6712ZM58.093 112.974C49.5509 112.974 41.846 109.597 35.1874 102.947C18.8898 86.6489 12.4151 55.0093 13.0239 37.6878C13.1507 32.6004 16.4356 28.175 21.4137 26.3975L58.3466 12.9804L95.1464 26.4588C99.9088 28.1995 103.187 32.5452 103.498 37.51C103.923 44.7978 102.959 54.1328 100.879 63.3881C94.4857 62.2009 87.7736 62.8908 81.6651 65.069C81.507 65.1242 81.3552 65.1886 81.1982 65.2456C79.8265 65.7551 78.4964 66.3401 77.2019 67.0032C76.8277 67.1925 76.4587 67.3817 76.0925 67.5836C75.0002 68.1919 73.957 68.8631 72.942 69.5795C72.5583 69.8488 72.162 70.0947 71.7906 70.3797C70.4858 71.3845 69.2409 72.4579 68.1125 73.6424L67.1233 74.6722C61.4666 80.8567 58.353 88.8861 58.353 97.2833C58.353 101.292 59.0315 105.104 60.4837 108.917C60.674 109.456 60.8769 109.977 61.1242 110.474C61.4476 111.24 61.7964 112 62.1769 112.729C60.8515 112.895 59.4944 112.974 58.093 112.974ZM108.863 113.924C100.936 120.679 87.6951 120.832 79.6541 114.17C79.4955 114.041 79.337 113.918 79.1658 113.802C79.1658 113.802 79.1594 113.802 79.1594 113.796C78.6077 113.312 78.1068 112.833 77.2316 111.926C76.3311 111.056 75.678 110.247 74.9614 109.045C74.1623 107.856 73.5535 106.741 73.1096 105.625C72.9955 105.337 72.9511 105.184 72.7926 104.914C72.7735 104.853 72.5833 104.332 72.5643 104.271C71.7526 102.15 71.3404 99.8024 71.3404 97.2833C71.3404 91.9508 73.2999 86.8757 76.5784 83.2655L77.4789 82.3338C82.5446 77.0212 90.1869 74.6568 97.3885 75.6226C99.3048 75.882 101.2 76.3256 103.004 77.0749C103.006 77.0756 103.008 77.0752 103.011 77.076C104.16 77.5579 105.206 78.1402 106.257 78.7666C106.276 78.7788 106.295 78.7972 106.314 78.8095C106.472 78.9259 106.637 79.0363 106.808 79.1343C108.051 79.8821 109.301 80.9118 110.423 82.0948L110.987 82.7016C111.165 82.8855 111.343 83.0632 111.698 83.4984C112.687 84.6323 113.594 85.9747 114.386 87.458C115.959 90.4491 116.796 93.8509 116.796 97.2833C116.796 103.695 113.936 109.732 108.863 113.924Z" fill="#DBEAFE"/>
<path d="M99.0083 87.5385L90.6122 95.6537L88.7097 93.8149C86.1731 91.3632 82.0638 91.3632 79.5272 93.8149C76.9906 96.2666 76.9906 100.238 79.5272 102.69L86.0209 108.967C87.2892 110.192 88.9507 110.805 90.6122 110.805C92.2736 110.805 93.9351 110.192 95.2034 108.967L108.191 96.4137C110.727 93.962 110.727 89.9902 108.191 87.5385C105.654 85.0867 101.545 85.0867 99.0083 87.5385Z" fill="#DBEAFE"/>
</svg>
