<svg width="24" height="28" viewBox="0 0 24 28" fill="none" xmlns="http://www.w3.org/2000/svg">
<path d="M12.8089 26.7394C12.5731 26.9087 12.2902 26.9997 12 26.9997C11.7098 26.9997 11.4269 26.9087 11.1911 26.7394C4.21616 21.7678 -3.18637 11.5414 4.29705 4.15192C6.35147 2.13099 9.1182 0.998979 12 1.00025C14.8888 1.00025 17.6606 2.1341 19.703 4.15047C27.1864 11.54 19.7839 21.7649 12.8089 26.7394Z" stroke="#3B82F6" stroke-width="2" stroke-linecap="round" stroke-linejoin="round"/>
<path d="M12.0003 13.9998C12.7665 13.9998 13.5012 13.6955 14.043 13.1537C14.5847 12.6119 14.8891 11.8772 14.8891 11.111C14.8891 10.3449 14.5847 9.61009 14.043 9.06834C13.5012 8.52658 12.7665 8.22223 12.0003 8.22223C11.2341 8.22223 10.4994 8.52658 9.95762 9.06834C9.41587 9.61009 9.11151 10.3449 9.11151 11.111C9.11151 11.8772 9.41587 12.6119 9.95762 13.1537C10.4994 13.6955 11.2341 13.9998 12.0003 13.9998Z" stroke="#3B82F6" stroke-width="2" stroke-linecap="round" stroke-linejoin="round"/>
</svg>
