<svg width="111" height="131" viewBox="0 0 111 131" fill="none" xmlns="http://www.w3.org/2000/svg">
<path d="M110.736 50.0424C109.82 40.5306 106.448 31.4177 100.95 23.5909C95.4526 15.7641 88.0157 9.49022 79.3639 5.38018C70.7122 1.27014 61.1404 -0.535973 51.5807 0.137706C42.0209 0.811385 32.7991 3.9419 24.8131 9.22441C17.9523 13.7987 12.1926 19.8312 7.94799 26.8887C3.70334 33.9462 1.07903 41.8534 0.263576 50.0424C-0.536357 58.1777 0.489967 66.3886 3.26809 74.0793C6.04621 81.77 10.5065 88.7476 16.3252 94.506L50.9296 129.074C51.5366 129.685 52.2587 130.169 53.0543 130.499C53.85 130.83 54.7034 131 55.5653 131C56.4272 131 57.2806 130.83 58.0762 130.499C58.8719 130.169 59.594 129.685 60.201 129.074L94.6748 94.506C100.494 88.7476 104.954 81.77 107.732 74.0793C110.51 66.3886 111.536 58.1777 110.736 50.0424ZM85.534 85.3268L55.5 115.273L25.466 85.3268C21.0398 80.9134 17.6494 75.5769 15.5383 69.7012C13.4272 63.8254 12.6479 57.5563 13.2565 51.3444C13.8691 45.0368 15.8797 38.9438 19.143 33.5058C22.4063 28.0679 26.8408 23.4209 32.1257 19.9009C39.0528 15.3128 47.1839 12.8654 55.5 12.8654C63.8161 12.8654 71.9472 15.3128 78.8743 19.9009C84.1432 23.4073 88.5679 28.0338 91.8304 33.4479C95.0929 38.862 97.1123 44.9294 97.7435 51.2142C98.3719 57.4471 97.6025 63.7413 95.4908 69.6412C93.3792 75.5411 89.9781 80.8989 85.534 85.3268ZM55.5 26.4109C49.689 26.4109 44.0084 28.1291 39.1768 31.3481C34.3451 34.5671 30.5792 39.1423 28.3554 44.4953C26.1316 49.8483 25.5498 55.7386 26.6835 61.4213C27.8172 67.1041 30.6154 72.324 34.7244 76.421C38.8335 80.518 44.0687 83.3081 49.768 84.4384C55.4674 85.5688 61.375 84.9887 66.7437 82.7714C72.1123 80.5541 76.701 76.7992 79.9295 71.9817C83.1579 67.1641 84.8811 61.5002 84.8811 55.7061C84.8638 47.9418 81.7628 40.5005 76.2565 35.0103C70.7502 29.5201 63.287 26.4281 55.5 26.4109ZM55.5 71.9812C52.2716 71.9812 49.1158 71.0267 46.4315 69.2384C43.7473 67.4501 41.6551 64.9082 40.4197 61.9343C39.1842 58.9605 38.861 55.6881 39.4908 52.531C40.1206 49.3739 41.6752 46.474 43.958 44.1979C46.2408 41.9218 49.1493 40.3717 52.3156 39.7437C55.4819 39.1158 58.7639 39.4381 61.7465 40.6699C64.7291 41.9017 67.2784 43.9877 69.0719 46.6642C70.8655 49.3406 71.8228 52.4872 71.8228 55.7061C71.8228 60.0226 70.1031 64.1622 67.042 67.2144C63.9809 70.2665 59.8291 71.9812 55.5 71.9812Z" fill="#DBEAFE"/>
</svg>
