<svg width="137" height="136" viewBox="0 0 137 136" fill="none" xmlns="http://www.w3.org/2000/svg">
<path d="M128.209 1.42299L118.548 11.0836L75.4039 4.1243C66.7474 2.744 57.8442 5.59947 51.6328 11.8108L8.53753 54.9085C3.3531 60.0905 0.5 66.9802 0.5 74.3086C0.5 81.637 3.3531 88.529 8.53753 93.7111L42.7889 127.962C47.971 133.147 54.863 136 62.1914 136C69.5198 136 76.4095 133.147 81.5915 127.962L124.689 84.8672C130.901 78.6558 133.775 69.7693 132.376 61.0961L125.416 17.9519L135.077 8.2913C136.974 6.39397 136.974 3.32031 135.077 1.42299C133.18 -0.47433 130.106 -0.47433 128.209 1.42299ZM117.821 77.9989L74.7232 121.094C68.0257 127.792 56.3548 127.792 49.6572 121.094L15.4058 86.8428C12.0571 83.494 10.2143 79.0424 10.2143 74.3086C10.2143 69.5748 12.0571 65.1256 15.4058 61.7768L58.5011 18.6791C61.8451 15.3351 66.3869 13.49 71.0495 13.49C71.984 13.49 72.9231 13.5635 73.8576 13.7153L110.075 19.5563L100.048 29.584L97.9962 27.5325C96.0989 25.6352 93.0253 25.6352 91.1279 27.5325C89.2306 29.4298 89.2306 32.5035 91.1279 34.4008L102.099 45.3721C103.048 46.3207 104.291 46.7951 105.533 46.7951C106.776 46.7951 108.019 46.3207 108.967 45.3721C110.865 43.4748 110.865 40.4011 108.967 38.5038L106.916 36.4523L116.944 26.4246L122.785 62.6424C123.688 68.2467 121.834 73.9861 117.821 77.9989Z" fill="#DBEAFE"/>
</svg>
